<svg xmlns="http://www.w3.org/2000/svg" width="500" height="258" viewBox="0 0 500 258">
  <g fill="none" fill-rule="evenodd" transform="translate(86 86)">
    <path fill="#000000" d="M203.457463,47.0803 L203.457463,46.900429 C203.457463,39.7703968 198.317663,33.5463323 190.7467,33.5463323 C182.906194,33.5463323 178.216953,39.5905258 178.216953,46.7192355 L178.216953,46.900429 C178.216953,54.0264935 183.355431,60.2532032 190.925073,60.2532032 C198.769543,60.2532032 203.457463,54.2090097 203.457463,47.0803 Z M164.700206,47.0803 L164.700206,46.900429 C164.700206,33.0040742 175.875635,21.726429 190.925073,21.726429 C205.887306,21.726429 216.97421,32.8255258 216.97421,46.7192355 L216.97421,46.900429 C216.97421,60.7941387 205.79878,72.0717839 190.7467,72.0717839 C175.784467,72.0717839 164.700206,60.9740097 164.700206,47.0803 Z M238.648307,57.2729 L238.648307,35.9700935 C238.648307,34.9821258 237.916315,34.3565452 237.029733,34.3565452 L233.697451,34.3565452 C233.697451,34.3565452 232.879576,34.3539 232.879576,33.5219968 L232.879576,23.4412871 C232.879576,23.0471581 232.952247,22.6292226 233.708022,22.6292226 L237.013877,22.6292226 C237.821182,22.6292226 238.648307,22.0843194 238.648307,21.0077387 L238.648307,11.0976419 C238.648307,10.5646419 238.809504,10.2683839 239.441078,10.2683839 L251.497805,10.2683839 C251.825484,10.2683839 252.351355,10.4561903 252.351355,11.1545129 L252.351355,21.0077387 C252.351355,21.9692548 252.771524,22.6292226 253.95011,22.6292226 L262.879355,22.6292226 C263.314058,22.6292226 263.707801,22.7614806 263.707801,23.4624484 L263.707801,33.5219968 C263.707801,33.9782871 263.662877,34.3565452 262.875391,34.3565452 L253.968608,34.3565452 C253.005391,34.3565452 252.351355,34.9384806 252.351355,35.9700935 L252.351355,55.0192226 C252.351355,58.1788677 253.988427,59.9273194 256.764447,59.7104161 C259.384556,59.5093839 260.520861,59.3877065 262.395765,58.4923194 C262.395765,58.4923194 263.528106,58.2674806 263.528106,59.4022548 L263.528106,68.1471581 C263.528106,68.7039645 263.253279,69.1853839 262.761761,69.4353516 C259.952708,70.8782871 257.031347,71.8014484 252.712066,71.8014484 C244.32719,71.8014484 238.648307,68.4592871 238.648307,57.2729 Z M103.69396,22.6293548 L115.738796,22.6293548 C116.074402,22.6293548 116.56592,22.9216452 116.56592,23.4572903 L116.56592,26.0429355 C116.56592,27.4977742 118.043117,27.7398065 118.546527,27.1605161 C121.622478,23.6146774 126.20998,21.7260323 130.718205,21.7260323 C141.082366,21.7260323 147.120639,28.5836129 147.120639,39.6827097 L147.120639,70.1589355 C147.120639,70.3864194 146.917161,70.9895161 146.292193,70.9895161 L134.251322,70.9895161 C133.918358,70.9895161 133.421555,70.7051613 133.421555,70.1615806 L133.421555,44.0128387 C133.421555,37.5163226 130.358816,34.1768065 125.13049,34.1768065 C119.902165,34.1768065 116.56592,37.5163226 116.56592,44.0128387 L116.56592,70.1589355 C116.56592,70.4909032 116.301663,70.9895161 115.740117,70.9895161 L103.69396,70.9895161 C103.363639,70.9895161 102.866836,70.6985484 102.866836,70.1589355 L102.866836,23.4572903 C102.866836,23.0962258 103.125808,22.6293548 103.69396,22.6293548 Z M314.775736,41.4252097 C313.609041,36.7102097 310.64672,32.7358548 304.877989,32.7358548 C297.575246,32.7358548 295.259033,39.4730806 294.800547,41.3022097 C294.631423,41.9754032 295.066125,43.0202419 296.115226,43.0202419 L313.376495,43.0202419 C314.922398,43.0202419 314.775736,41.4252097 314.775736,41.4252097 Z M280.989153,47.0805645 L280.989153,46.9006935 C280.989153,33.0942742 290.815551,21.7266935 304.877989,21.7266935 C321.008238,21.7266935 328.402149,34.2674032 328.402149,47.9825645 C328.402149,48.6584032 328.367796,49.4043387 328.318908,50.1767258 C328.28984,50.6409516 327.96084,51.5892419 326.802073,51.5892419 L296.401945,51.5892419 C295.088587,51.5892419 294.935318,52.9224032 295.154651,53.5347581 C296.927816,58.4904677 300.953772,61.0655323 306.409358,61.0655323 C310.638792,61.0655323 313.697567,59.8619839 317.22672,56.9046935 C317.915109,56.329371 318.698631,56.534371 319.095017,56.9615645 C319.095017,56.9615645 324.310129,61.5800161 325.011732,62.201629 C325.714655,62.8258871 325.570635,63.5612419 325.135933,64.0267903 C320.599961,68.9137258 314.680603,72.0720484 306.228342,72.0720484 C291.715346,72.0720484 280.989153,61.8762742 280.989153,47.0805645 Z"/>
    <path fill="#41C9B4" d="M10.2969382,70.9895161 L61.6817173,70.9895161 L61.6817173,10.2698387 L24.5826731,10.2698387 C24.3184161,10.2698387 23.891641,10.4814516 23.6696651,10.7208387 C19.3160305,15.4054194 14.9478619,20.1733226 10.6827534,24.8922903 C10.467384,25.1290323 10.3048659,25.625 10.3035446,26.0482258 L10.2969382,70.9895161 Z M66.8201952,0 C69.6530305,0 71.9586731,2.30790323 71.9586731,5.14351613 L71.9586731,76.1330323 C71.9586731,78.9686452 69.6530305,81.2752258 66.8201952,81.2752258 L5.15846026,81.2752258 C2.32298235,81.2752258 0.0173397816,78.9686452 0.0173397816,76.1330323 C0.0173397816,75.5762258 0.0133759262,26.1302258 0.00016307478,24.1780968 C-0.0117284915,22.1545484 0.626452231,20.5171935 2.00851649,19.0279677 L17.4939783,2.14125806 C18.8245125,0.679806452 20.3638097,0 22.3364884,0 L66.8201952,0 Z M20.5736297,35.7892968 C18.3076257,35.7892968 16.4631117,33.9442968 16.4631117,31.676071 C16.4631117,29.4078452 18.3063044,27.5615226 20.5723085,27.5615226 L27.5658707,27.5615226 L27.567192,20.5544903 C27.567192,18.2862645 29.4103848,16.4412645 31.6777101,16.4412645 C33.9450354,16.4412645 35.7882281,18.2862645 35.7882281,20.5544903 L35.7882281,31.676071 C35.7882281,33.9442968 33.9450354,35.7892968 31.6777101,35.7892968 L20.5736297,35.7892968 Z"/>
  </g>
</svg>
