<svg xmlns="http://www.w3.org/2000/svg" width="500" height="258" viewBox="0 0 500 258" xmlns:xlink="http://www.w3.org/1999/xlink">
  <defs>
    <polygon id="a" points=".088 .469 7.935 .469 7.935 8.327 .088 8.327"/>
  </defs>
  <g fill="none" fill-rule="evenodd" transform="translate(83 63)">
    <g transform="translate(3 113)">
      <path fill="#000000" d="M5.67897766 7.08808178C9.84660478 5.66882528 13.2296402 4.82310037 15.4213351 4.82310037 20.2656726 4.82310037 23.3777142 7.77038662 23.3777142 12.053658 23.3777142 15.6286022 21.8353721 17.8935836 18.614933 19.6396803 16.3416818 20.9225799 14.2305108 21.3587138 11.7409807 21.9046617 11.1995092 22.0134349 10.9827142 21.9868922 10.7937928 21.4685279 10.4686002 20.7039926 9.79240601 19.8858513 8.8994168 19.3123197 12.4713737 18.7117249 14.3931071 18.1933606 16.2332843 17.2924684 18.5333767 16.1199033 19.9683536 14.3732862 19.9683536 11.8626543 19.9683536 9.29789591 18.3170978 7.71521933 15.3129376 7.71521933 12.8776063 7.71521933 9.65716718 8.69834201 5.54322265 10.5256283 4.67759091 10.962803 4.00088059 11.2625799 3.67620416 11.5087509 3.29732897 11.8361115 3.08105008 11.9173011 2.94529507 11.9173011 2.67481741 11.9173011 2.45853852 11.753881 2.16070339 11.34429 1.67343066 10.7442156.997236518 9.67990335.42840755 8.50733829 1.61974807 8.36994052 2.62061864 8.12481041 5.67897766 7.08808178M43.7350293 2.6947881C43.8702681 2.80356134 43.9513082 3.0221487 43.9513082 3.13092193 43.9513082 3.37709294 43.8160693 3.54051301 43.5729492 3.65032714 43.2477565 3.81374721 42.8420401 4.05887732 42.2737273 4.60482528 39.9457612 6.70586617 36.9694746 9.51627509 34.8851448 11.699026 34.6420247 11.9998439 34.5336271 12.1632639 34.5336271 12.2996208 34.5336271 12.4635613 34.6420247 12.5993978 34.8851448 12.7904015 38.4034191 15.3551599 42.0569322 18.3295093 44.9526949 21.3860892 45.0605763 21.5224461 45.1421325 21.6322602 45.1421325 21.7410335 45.1421325 21.8498067 45.0879337 21.9320372 44.9526949 22.0683941 44.3301834 22.7501784 43.5455917 23.5422974 43.0851602 23.9508476 42.9230801 24.0872045 42.8146826 24.1694349 42.7068012 24.1694349 42.5984037 24.1694349 42.5173636 24.0872045 42.3816086 23.9232639 39.2427257 20.3769442 36.2117242 17.5384312 32.5308536 14.7004387 31.5026256 13.909881 31.0969091 13.3092862 31.0969091 12.4083941 31.0969091 11.5090632 31.5836656 10.907948 32.4224561 10.0075762 34.7230647 7.49798513 36.9694746 5.23196283 39.2964083 2.66720446 40.0273174 1.87664684 40.4335501 1.30311524 40.7577103.621330855 41.9485347 1.33069888 42.9767627 2.04006691 43.7350293 2.6947881M60.3838066 19.121368C59.5986988 19.121368 59.0845847 19.5850855 59.0845847 20.1580967 59.0845847 21.0038216 59.8149777 21.5773532 61.4393921 21.5773532 61.9261487 21.5773532 62.2781826 21.5497695 62.6838991 21.4685799 62.3318652 19.9670929 61.5204322 19.121368 60.3838066 19.121368L60.3838066 19.121368zM60.3564492 11.344342C61.8724661 10.4710335 63.1443305 10.1160892 64.6593151 10.1160892 68.6106633 10.1160892 71.3711872 12.7365353 71.3711872 16.6653829 71.3711872 21.2224089 67.7176741 24.1415911 61.9261487 24.1415911 58.516272 24.1415911 56.4592997 22.6687286 56.4592997 20.130513 56.4592997 18.3032268 58.1642381 16.8017398 60.2754091 16.8017398 62.8196541 16.8017398 64.6866726 18.165829 65.3628667 20.7852342 67.2572427 19.9124461 68.1233906 18.711777 68.1233906 16.6383197 68.1233906 14.1547509 66.3916109 12.517948 63.8747234 12.517948 61.6283136 12.517948 59.1387835 13.5276134 56.9465724 15.4100669 56.1619807 16.1194349 55.4042304 16.9115539 54.5922812 17.7296952 54.4028436 17.9206989 54.2670886 18.0294721 54.1323659 18.0294721 54.0239684 18.0294721 53.8887296 17.9482825 53.7266495 17.7848625 53.1578205 17.2925204 52.5626664 16.5831524 52.1295924 16.0106617 51.9669961 15.7925948 52.0485524 15.6010706 52.2648313 15.3824833 54.3754861 13.6639703 56.243537 11.9173532 58.6783521 9.3525948 60.3564492 7.60649814 61.6283136 6.24240892 62.8733367 4.68731599 61.2499545 4.98709294 59.3282211 5.36910037 57.650124 5.72404461 57.2980901 5.8052342 56.9465724 5.88746468 56.5140146 6.0514052 56.3782596 6.10501115 56.107782 6.18724164 55.9725431 6.18724164 55.7020655 6.18724164 55.5121117 6.0514052 55.3773891 5.72404461 55.0521965 5.09586617 54.8085601 4.33237175 54.4302011 2.77727881 55.2416341 2.88605204 56.1351394 2.88605204 56.9465724 2.83088476 58.597312 2.66746468 60.9789607 2.31252045 63.0901317 1.90397026 63.7668421 1.76657249 64.3083136 1.63073606 64.578275 1.49437918 64.71403 1.4121487 64.9571502 1.27579182 65.0923891 1.27579182 65.3628667 1.27579182 65.525463 1.3580223 65.7149006 1.49437918 66.5268498 2.12151673 67.0683213 2.66746468 67.5282365 3.24047584 67.7450316 3.48560595 67.8260716 3.67660967 67.8260716 3.89519703 67.8260716 4.16895167 67.6639915 4.41356134 67.3656402 4.54991822 66.9062411 4.76850558 66.6894461 4.95950929 66.175332 5.42322677 64.199916 7.36032714 62.3865801 9.27036431 60.3296079 11.262632L60.3564492 11.344342zM79.55102 18.0296283C79.7404576 17.8386245 79.8756965 17.8110409 79.9567365 17.8110409 80.0377766 17.8110409 80.1461741 17.8386245 80.3087704 17.9755019 82.3115439 19.2302974 84.0975223 20.8676208 85.6940632 22.9686617 85.8566595 23.1872491 85.8840169 23.2684387 85.8840169 23.3782528 85.8840169 23.5146097 85.829302 23.6233829 85.6130231 23.8143866L83.9622835 25.2336431C83.7728459 25.3970632 83.6644484 25.4792937 83.5834083 25.4792937 83.4481695 25.4792937 83.339772 25.4246468 83.2045331 25.2060595 81.7700724 23.1050186 79.929379 21.2496283 78.089718 19.9943123 77.9271217 19.885539 77.8455655 19.8033086 77.8455655 19.722119 77.8455655 19.6398885 77.9002804 19.557658 78.0350031 19.3937175L79.55102 18.0296283zM97.8758297 7.08808178C102.043457 5.66882528 105.425976 4.82310037 107.618187 4.82310037 112.462525 4.82310037 115.574566 7.77038662 115.574566 12.053658 115.574566 15.6286022 114.032224 17.8935836 110.811785 19.6396803 108.538534 20.9225799 106.427363 21.3587138 103.937833 21.9046617 103.396361 22.0134349 103.179566 21.9868922 102.990645 21.4685279 102.665452 20.7039926 101.989258 19.8858513 101.095753 19.3123197 104.668226 18.7117249 106.589959 18.1933606 108.430136 17.2924684 110.730229 16.1199033 112.165206 14.3732862 112.165206 11.8626543 112.165206 9.29789591 110.51395 7.71521933 107.50979 7.71521933 105.074458 7.71521933 101.854019 8.69834201 97.7400747 10.5256283 96.874443 10.962803 96.1977327 11.2625799 95.8730562 11.5087509 95.494181 11.8361115 95.2779022 11.9173011 95.1421471 11.9173011 94.8716695 11.9173011 94.6553906 11.753881 94.3575555 11.34429 93.8702827 10.7442156 93.1940886 9.67990335 92.6252596 8.50733829 93.8166002 8.36994052 94.8174707 8.12481041 97.8758297 7.08808178M137.177008 5.75136803C137.339088 5.47813383 137.474327 5.45055019 137.74532 5.56036431 139.341861 5.99649814 141.479874 7.08787361 143.049573 8.12512268 143.211653 8.23389591 143.29321 8.31612639 143.29321 8.42489963 143.29321 8.50713011 143.265852 8.61590335 143.184812 8.75226022 142.914334 9.35285502 142.427062 10.1985799 142.048703 10.7715911 141.96663 10.907948 141.88559 10.9631152 141.80455 10.9631152 141.72351 10.9631152 141.669311 10.9355316 141.560914 10.8533011 139.964373 9.7624461 138.015798 8.56073606 135.959342 7.87895167 136.418741 7.06081041 136.824974 6.2421487 137.177008 5.75136803M132.143233 18.8754572C130.790328 18.8754572 129.734743 19.4214052 129.734743 20.4581338 129.734743 21.3314424 130.492493 21.7680967 132.034835 21.7680967 133.496137 21.7680967 134.389643 20.9764981 134.389643 19.8309963 134.389643 19.5848253 134.389643 19.4484684 134.362285 19.2850483 133.712932 19.066461 132.982023 18.8754572 132.143233 18.8754572M134.064966 11.9998439C134.037609 11.2628922 134.010251 10.8257175 133.848171 10.062223 135.174234 10.1985799 135.877786 10.3073532 136.798133 10.5805874 137.041253 10.6357546 137.177008 10.7715911 137.177008 11.0167212 137.177008 11.0718885 137.122809 11.2628922 137.014928 11.5902528 136.90653 11.9176134 136.879173 12.244974 136.90653 12.7092119 136.90653 14.3184312 136.98757 15.4925576 137.203849 17.3474275 139.152424 18.1395465 140.478487 18.7391004 142.075028 19.8856431 142.346022 20.0756059 142.372863 20.1854201 142.237624 20.4581338 141.831908 21.3038587 141.452516 21.986684 140.993117 22.6689888 140.911561 22.8053457 140.830521 22.8599926 140.748965 22.8599926 140.667924 22.8599926 140.586368 22.8053457 140.478487 22.6955316 139.287663 21.6582825 138.286276 21.0587286 137.177008 20.4040074 137.177008 23.1321859 135.228433 24.3880223 132.143233 24.3880223 129.165914 24.3880223 127.163656 22.8599926 127.163656 20.5127807 127.163656 18.1395465 129.112231 16.5292862 132.17059 16.5292862 132.684704 16.5292862 133.442455 16.5568699 134.308086 16.6927063 134.146006 14.9466097 134.091291 13.2817026 134.064966 11.9998439M133.3067 4.68705576C133.550852 4.60482528 133.658733 4.60482528 133.712932 4.90460223 133.848171 5.58690706 133.929211 6.40608922 133.956569 7.11545725 133.956569 7.36058736 133.848171 7.4152342 133.631892 7.44281784 132.17059 7.7425948 130.844011 7.93359851 129.165914 8.17976952 127.434134 12.7904015 125.837593 16.5568699 123.889018 19.8856431 123.780621 20.0756059 123.699581 20.1583569 123.5917 20.1583569 123.510143 20.1583569 123.401746 20.1031896 123.266507 20.022 122.644512 19.6399926 121.859404 19.066461 121.399488 18.6303271 121.26425 18.520513 121.209535 18.4393234 121.209535 18.3295093 121.209535 18.2483197 121.236892 18.1395465 121.34529 18.0021487 123.374904 14.6192491 124.809365 11.7536729 126.026515 8.47954647 124.998287 8.53471375 124.159496 8.53471375 123.320706 8.53471375 122.725552 8.53471375 122.508757 8.53471375 121.832046 8.50713011 121.561569 8.50713011 121.507886 8.42489963 121.453171 8.06995539 121.317932 7.55159108 121.236892 6.65121933 121.182693 5.75136803 122.292478 5.83255762 122.914473 5.86014126 123.699581 5.86014126 124.755166 5.86014126 125.567116 5.83255762 126.811622 5.72378439 127.136815 4.57724164 127.326253 3.65032714 127.515174 2.66720446 127.67777 1.71270632 127.67777 1.30311524 127.67777.457390335 128.841753.621330855 130.00522.784750929 130.844011 1.03092193 131.115005 1.08452788 131.277085 1.2484684 131.277085 1.43947212 131.277085 1.65805948 131.196045 1.79389591 131.033965 1.95783643 130.871368 2.17642379 130.762971 2.4225948 130.600891 2.96698141 130.411453 3.62274349 130.194658 4.4684684 129.951022 5.28660967 131.006607 5.17783643 132.25163 4.93218587 133.3067 4.68705576M170.37272.32129368C170.5348.211479554 170.616873.239063197 170.778953.375420074 171.78034 1.13943494 172.754885 2.23133086 173.350039 3.185829 173.457921 3.34924907 173.484762 3.51318959 173.267967 3.67660967L172.186572 4.52337546C171.969777 4.68731599 171.833506 4.60456506 171.726657 4.44114498 170.994716 3.26805948 170.1296 2.23133086 169.019816 1.30337546L170.37272.32129368zM167.96423 2.09393309C168.099469 1.98515985 168.208383 2.01274349 168.369431 2.14910037 169.209253 2.80382156 170.183283 3.89519703 170.941549 5.06828253 171.049431 5.23222305 171.049431 5.36910037 170.859477 5.50545725L169.723367 6.35118216C169.53393 6.48753903 169.398691 6.45995539 169.262936 6.26999257 168.450987 5.01467658 167.585355 3.97742751 166.530802 3.10463941L167.96423 2.09393309zM167.234354 5.91504833C167.422759 5.8052342 167.55903 5.86040149 167.748468 6.0514052 169.587612 7.79750186 171.238868 10.0624833 172.240771 12.6818885 172.348653 12.9270186 172.321295 13.0638959 172.131857 13.2278364 171.672458 13.6639703 170.643714 14.3186914 170.101727 14.5919257 169.831249 14.7282825 169.561287 14.7006989 169.480247 14.3733383 168.39782 11.508803 166.990201 9.16159108 165.041626 7.30672119 165.71782 6.84196283 166.502412 6.29601487 167.234354 5.91504833L167.234354 5.91504833zM156.516418 4.08620074C156.652173 3.26805948 156.787412 2.20374721 156.787412 1.05720446 158.194515 1.3580223 158.952266 1.54902602 160.035209 1.95809665 160.305686 2.04032714 160.468283 2.2589145 160.468283 2.50352416 160.468283 2.63988104 160.413568 2.77727881 160.278329 2.91311524 160.007851 3.26805948 159.872612 3.56783643 159.737374 3.95036431 159.38534 5.06828253 159.114346 6.07898885 158.762828 7.22449071 159.493737 7.14278067 160.305686 7.11571747 160.927682 7.11571747 163.444569 7.11571747 164.798506 8.88939777 164.798506 12.3821115 164.798506 15.3288773 164.256002 18.957948 163.336688 20.922632 162.552612 22.6687286 161.252874 23.4873903 159.683175 23.4873903 158.383953 23.4873903 157.463606 23.3510335 156.868452 23.0777993 156.543776 22.9414424 156.381696 22.722855 156.381696 22.3143048 156.300139 21.4409963 156.245941 20.676461 155.867065 19.7760892 157.085247 20.3491004 158.140833 20.4854572 158.979623 20.4854572 159.872612 20.4854572 160.278329 20.1580967 160.711403 19.0391375 161.280232 17.5111078 161.766988 14.9192862 161.766988 12.2447138 161.766988 10.3346766 161.414955 9.73512268 160.224646 9.73512268 159.574777 9.73512268 158.735987 9.81631227 157.951395 9.92612639 156.164901 15.1649368 154.622042 18.9303643 152.511388 22.7504387 152.348791 23.1048625 152.132512 23.1600297 151.807836 22.9960892 151.320563 22.7504387 150.264978 22.0957175 149.940301 21.7959405 149.805062 21.6585428 149.724022 21.5497695 149.724022 21.3863494 149.724022 21.3035985 149.750864 21.1948253 149.83242 21.086052 151.996757 17.2925204 153.404377 14.4009219 154.784639 10.3898439 153.729053 10.5532639 152.862905 10.7172045 152.132512 10.8530409 151.428961 10.9904387 150.995887 11.1538587 150.643853 11.2902156 150.264978 11.4265725 149.940301 11.3714052 149.778221 10.9357918 149.534585 10.3070929 149.23675 9.3255316 148.939431 8.12486245 150.129739 8.12486245 151.320563 8.04263197 152.511388 7.93385874 153.648013 7.8250855 154.6494 7.68768773 155.704985 7.52426766 156.138059 5.96917472 156.326981 5.01467658 156.516418 4.08620074L156.516418 4.08620074zM186.191792 19.121368C185.4072 19.121368 184.893086 19.5850855 184.893086 20.1580967 184.893086 21.0038216 185.623995 21.5773532 187.247378 21.5773532 187.734134 21.5773532 188.086168 21.5497695 188.492401 21.4685799 188.140367 19.9670929 187.328934 19.121368 186.191792 19.121368L186.191792 19.121368zM186.165467 11.344342C187.680968 10.4710335 188.952316 10.1160892 190.468333 10.1160892 194.419165 10.1160892 197.179689 12.7365353 197.179689 16.6653829 197.179689 21.2224089 193.526176 24.1415911 187.734134 24.1415911 184.324773 24.1415911 182.267801 22.6687286 182.267801 20.130513 182.267801 18.3032268 183.97274 16.8017398 186.083911 16.8017398 188.627639 16.8017398 190.49569 18.165829 191.171884 20.7852342 193.06626 19.9124461 193.932408 18.711777 193.932408 16.6383197 193.932408 14.1547509 192.200629 12.517948 189.683225 12.517948 187.436815 12.517948 184.947801 13.5276134 182.755074 15.4100669 181.970482 16.1194349 181.212732 16.9115539 180.400783 17.7296952 180.211345 17.9206989 180.076106 18.0294721 179.941384 18.0294721 179.83247 18.0294721 179.697231 17.9482825 179.535151 17.7848625 178.966322 17.2925204 178.371684 16.5831524 177.938094 16.0106617 177.775498 15.7925948 177.85757 15.6010706 178.072817 15.3824833 180.183988 13.6639703 182.051522 11.9173532 184.486854 9.3525948 186.165467 7.60649814 187.436815 6.24240892 188.681838 4.68731599 187.05794 4.98709294 185.137239 5.36910037 183.458626 5.72404461 183.106592 5.8052342 182.755074 5.88746468 182.322516 6.0514052 182.187277 6.10501115 181.916284 6.18724164 181.781045 6.18724164 181.510051 6.18724164 181.321129 6.0514052 181.185374 5.72404461 180.860698 5.09586617 180.617578 4.33237175 180.238703 2.77727881 181.050136 2.88605204 181.943641 2.88605204 182.755074 2.83088476 184.40633 2.66746468 186.787462 2.31252045 188.898633 1.90397026 189.575344 1.76657249 190.116815 1.63073606 190.386777 1.49437918 190.522015 1.4121487 190.765652 1.27579182 190.900891 1.27579182 191.171884 1.27579182 191.334481 1.3580223 191.523918 1.49437918 192.335351 2.12151673 192.876823 2.66746468 193.336738 3.24047584 193.553533 3.48560595 193.634057 3.67660967 193.634057 3.89519703 193.634057 4.16895167 193.471977 4.41356134 193.174142 4.54991822 192.714743 4.76850558 192.497948 4.95950929 191.983834 5.42322677 190.007901 7.36032714 188.195082 9.27036431 186.138109 11.262632L186.165467 11.344342zM205.358954 18.0296283C205.548391 17.8386245 205.68363 17.8110409 205.765186 17.8110409 205.846743 17.8110409 205.954624 17.8386245 206.11722 17.9755019 208.119478 19.2302974 209.905972 20.8676208 211.502513 22.9686617 211.665109 23.1872491 211.692467 23.2684387 211.692467 23.3782528 211.692467 23.5146097 211.637752 23.6233829 211.420957 23.8143866L209.770733 25.2336431C209.581296 25.3970632 209.473414 25.4792937 209.391342 25.4792937 209.256619 25.4792937 209.147706 25.4246468 209.012467 25.2060595 207.579039 23.1050186 205.737829 21.2496283 203.898168 19.9943123 203.735572 19.885539 203.654015 19.8033086 203.654015 19.722119 203.654015 19.6398885 203.70873 19.557658 203.843453 19.3937175L205.358954 18.0296283zM230.097233 1.46684758C230.422941 1.54907807 230.585022 1.68543494 230.585022 1.9040223 230.585022 2.28498885 230.395584 2.66751673 230.395584 3.04952416 230.395584 3.59547212 230.476108 4.25019331 230.530823 4.87733086 230.774459 6.78840892 231.044937 8.15249814 231.396971 9.5712342 232.749875 8.83428253 233.723388 8.31591822 235.239921 7.49777695 236.023997 7.03301859 236.67335 6.56982156 237.10694 6.02387361 237.973088 6.92424535 238.676639 7.87874349 239.082872 8.58863197 239.190753 8.75205204 239.271277 8.97063941 239.271277 9.16164312 239.271277 9.43435688 239.109197 9.65294424 238.731354 9.70759108 237.918373 9.84394796 236.999059 10.1713086 236.132911 10.5257323 233.805461 11.4812714 231.639575 12.4909368 229.772556 13.7186691 227.418781 15.2737621 226.579991 16.5566617 226.579991 17.8385204 226.579991 19.4487807 227.770299 20.1305651 230.882341 20.1305651 234.292217 20.1305651 237.052741 19.8859554 239.136555 19.5034275 239.434906 19.4487807 239.570145 19.5034275 239.623311 19.8307881 239.759582 20.5677398 239.840106 21.5498216 239.894305 22.3679628 239.921663 22.6687807 239.732225 22.8051375 239.407549 22.8327212 236.94486 23.1600818 234.778974 23.2412714 231.342256 23.2412714 226.227957 23.2412714 223.521116 21.5498216 223.521116 18.0019405 223.521116 14.9739851 225.497048 12.9817175 228.663804 10.9629071 228.013419 8.86186617 227.526663 6.40588104 227.256185 4.30484015 227.066747 2.85852045 226.87731 1.9040223 226.552633 1.13948699 227.850823 1.13948699 229.096362 1.22067658 230.097233 1.46684758M265.609762.266386617C265.771842.157613383 265.852882.184156134 266.015995.321033457 267.017381 1.08452788 267.990894 2.17642379 268.587081 3.13092193 268.694962 3.2953829 268.721804 3.45932342 268.505008 3.62274349L267.422582 4.4684684C267.206819 4.63240892 267.070548 4.54965799 266.962666 4.38623792 266.231757 3.21315242 265.365609 2.17642379 264.256857 1.2484684L265.609762.266386617zM263.201272 2.04006691C263.336511 1.93025279 263.444392 1.95783643 263.606472 2.09419331 264.446295 2.74943494 265.420324 3.84028996 266.178591 5.01441636 266.286472 5.17835688 266.286472 5.31419331 266.096518 5.45055019L264.960409 6.29627509C264.770971 6.43367286 264.635733 6.40608922 264.499978 6.2150855 263.688029 4.95976952 262.822397 3.92252045 261.766811 3.04973234L263.201272 2.04006691zM254.351388 1.71270632C254.676064 1.79441636 254.83866 1.93025279 254.83866 2.14884015 254.83866 2.53136803 254.649223 2.91337546 254.649223 3.2953829 254.649223 3.84028996 254.730779 4.49605204 254.783945 5.12318959 255.028098 7.03322677 255.298059 8.39731599 255.650093 9.81657249 257.00403 9.07962082 257.978059 8.56125651 259.493044 7.7425948 260.278668 7.27939777 260.928021 6.81463941 261.360579 6.26973234 262.22621 7.16958364 262.930278 8.12512268 263.336511 8.83449071 263.444392 8.99791078 263.525948 9.21649814 263.525948 9.40750186 263.525948 9.68021561 263.363352 9.89880297 262.984477 9.95240892 262.173044 10.0898067 261.252697 10.4171673 260.386549 10.7721115 258.059616 11.7266097 255.894246 12.7367955 254.027227 13.963487 251.671904 15.5201413 250.833113 16.8014796 250.833113 18.0843792 250.833113 19.6670558 251.942898 20.3769442 255.325417 20.3769442 258.356935 20.3769442 261.306896 20.1307732 263.39071 19.7487658 263.688029 19.6946394 263.823267 19.7487658 263.877982 20.0761264 264.012705 20.8130781 264.094261 21.7956803 264.147944 22.6138216 264.175301 22.914119 263.985864 23.0499554 263.661187 23.077539 261.197982 23.4048996 259.033645 23.4871301 255.596927 23.4871301 250.481079 23.4871301 247.77527 21.7956803 247.77527 18.2483197 247.77527 15.218803 249.75017 13.2275762 252.916927 11.2077249 252.267574 9.10668401 251.780817 6.65121933 251.509824 4.54965799 251.31987 3.10437918 251.131465 2.14884015 250.805756 1.38430483 252.105494 1.38430483 253.350517 1.46705576 254.351388 1.71270632L254.351388 1.71270632zM287.076552 9.65268401C285.642091 9.76249814 284.613863 9.81610409 283.829271 9.81610409 283.260442 9.84368773 282.556891 9.84368773 281.55602 9.81610409 281.176629 9.81610409 280.960866 9.68026766 280.934025 9.38049071 280.825111 8.83454275 280.771428 8.09759108 280.635157 6.89692193 281.637576 7.00569517 282.990481 7.03327881 283.991351 7.03327881 284.749618 7.03327881 286.020966 7.00569517 286.996028 6.92450558 286.941313 5.56041636 286.941313 4.33216357 286.833431 3.29543494 286.724518 2.33989591 286.643994 1.79394796 286.373 1.05699628 287.969541 1.11216357 289.241921 1.24852045 289.863917 1.43952416 290.161752 1.52175465 290.297507 1.65811152 290.297507 1.87669888 290.297507 2.0677026 290.215951 2.23112268 290.108069 2.42212639 290.026513 2.58606691 289.971798 3.02220074 289.971798 3.5681487L289.971798 6.59714498C291.136297 6.43320446 292.299764 6.24220074 293.435874 5.99655019 293.761582 5.91484015 293.896821 5.96896654 293.924179 6.24220074 294.03206 6.92450558 294.086259 7.57922677 294.139941 8.2885948 294.166783 8.64353903 294.03206 8.75231227 293.787908 8.77937546 292.489202 9.02554647 291.298894 9.18896654 290.053871 9.32532342L290.080712 13.5274052C290.108069 16.0645799 289.674479 18.2483717 288.890404 19.8581115 288.051613 21.6583346 286.697676 23.1051747 285.020096 24.0867361 284.72226 24.2782602 284.532823 24.3329071 284.343385 24.3329071 284.12659 24.3329071 284.018709 24.3329071 283.801914 24.0867361 283.315157 23.6506022 282.611606 23.1874052 281.690743 22.7502305 284.235504 21.3861413 285.453169 20.1308253 286.265119 18.2207881 286.859757 16.8291152 287.13075 14.9742454 287.103909 12.1357323L287.076552 9.65268401zM277.712553 22.0132788C277.712553 22.2042825 277.632029 22.286513 277.361035 22.3952862 276.549086 22.7502305 276.06233 22.8865874 275.494017 22.9688178 275.169341 23.0234647 275.034102 22.9412342 274.871505 22.6138736 274.005874 20.867777 273.274965 16.9930558 273.274965 14.1545428 273.274965 11.9447286 273.517569 9.43409665 274.086398 5.42301859 274.248478 4.16874349 274.383716 2.94101115 274.383716 1.35781413 275.62874 1.65811152 276.522245 1.95788848 277.225797 2.31231227 277.659387 2.53089963 277.821467 2.72242379 277.821467 2.91342751 277.821467 3.02220074 277.821467 3.15803717 277.659387 3.45937546 277.523116 3.81379926 277.333678 4.54971004 277.145273 5.47818587 276.630126 8.42495167 276.116012 11.2629442 276.116012 13.6637621 276.116012 15.4103792 276.170211 16.9654721 276.387006 17.975658 277.063716 16.5293383 277.550473 15.6013829 278.199826 14.0733532 278.578701 15.1100818 278.822854 15.465026 279.092815 15.9011599 279.255411 16.0921636 279.336968 16.2561041 279.336968 16.4195242 279.336968 16.6105279 279.282253 16.7744684 279.012291 17.3198959 278.281382 18.9577398 278.064587 19.6946914 277.794626 20.6491896 277.739911 20.867777 277.712553 21.1675539 277.712553 21.3585576L277.712553 22.0132788zM307.070425 19.121368C306.285834 19.121368 305.77172 19.5850855 305.77172 20.1580967 305.77172 21.0038216 306.502629 21.5773532 308.126011 21.5773532 308.612767 21.5773532 308.964801 21.5497695 309.371034 21.4685799 309.019 19.9670929 308.207567 19.121368 307.070425 19.121368L307.070425 19.121368zM307.0441 11.344342C308.559601 10.4710335 309.830949 10.1160892 311.346966 10.1160892 315.297798 10.1160892 318.058322 12.7365353 318.058322 16.6653829 318.058322 21.2224089 314.404809 24.1415911 308.612767 24.1415911 305.203407 24.1415911 303.146435 22.6687286 303.146435 20.130513 303.146435 18.3032268 304.851373 16.8017398 306.962544 16.8017398 309.506273 16.8017398 311.374324 18.165829 312.050518 20.7852342 313.944894 19.9124461 314.811042 18.711777 314.811042 16.6383197 314.811042 14.1547509 313.079262 12.517948 310.561858 12.517948 308.315448 12.517948 305.826435 13.5276134 303.633707 15.4100669 302.849116 16.1194349 302.091365 16.9115539 301.279416 17.7296952 301.089978 17.9206989 300.95474 18.0294721 300.820017 18.0294721 300.711103 18.0294721 300.575864 17.9482825 300.413784 17.7848625 299.844955 17.2925204 299.250317 16.5831524 298.816727 16.0106617 298.654131 15.7925948 298.736203 15.6010706 298.95145 15.3824833 301.062621 13.6639703 302.930156 11.9173532 305.365487 9.3525948 307.0441 7.60649814 308.315448 6.24240892 309.560471 4.68731599 307.936573 4.98709294 306.015872 5.36910037 304.337259 5.72404461 303.985225 5.8052342 303.633707 5.88746468 303.201149 6.0514052 303.065911 6.10501115 302.794917 6.18724164 302.659678 6.18724164 302.388684 6.18724164 302.199763 6.0514052 302.064008 5.72404461 301.739331 5.09586617 301.496211 4.33237175 301.117336 2.77727881 301.928769 2.88605204 302.822274 2.88605204 303.633707 2.83088476 305.284963 2.66746468 307.666096 2.31252045 309.777267 1.90397026 310.453977 1.76657249 310.995448 1.63073606 311.26541 1.49437918 311.400649 1.4121487 311.644285 1.27579182 311.779524 1.27579182 312.050518 1.27579182 312.213114 1.3580223 312.402552 1.49437918 313.213985 2.12151673 313.755456 2.66746468 314.215371 3.24047584 314.432166 3.48560595 314.51269 3.67660967 314.51269 3.89519703 314.51269 4.16895167 314.35061 4.41356134 314.052775 4.54991822 313.593376 4.76850558 313.376581 4.95950929 312.862467 5.42322677 310.886535 7.36032714 309.073715 9.27036431 307.016743 11.262632L307.0441 11.344342z"/>
      <g transform="translate(323.741 17.152)">
        <mask id="b" fill="white">
          <use xlink:href="#a"/>
        </mask>
        <path fill="#000000" d="M1.76548613,4.39735316 C1.76548613,5.68025279 2.73951541,6.66233457 4.01189599,6.66233457 C5.2837604,6.66233457 6.25778968,5.68025279 6.25778968,4.39735316 C6.25778968,3.11445353 5.2837604,2.13237175 4.01189599,2.13237175 C2.73951541,2.13237175 1.76548613,3.11445353 1.76548613,4.39735316 M7.93537057,4.39735316 C7.93537057,6.58062454 6.17726579,8.32724164 4.01189599,8.32724164 C1.84704237,8.32724164 0.0879052388,6.58062454 0.0879052388,4.39735316 C0.0879052388,2.21512268 1.84704237,0.468505576 4.01189599,0.468505576 C6.17726579,0.468505576 7.93537057,2.21512268 7.93537057,4.39735316" mask="url(#b)"/>
      </g>
    </g>
    <path fill="#000000" d="M203.457463,47.0803 L203.457463,46.900429 C203.457463,39.7703968 198.317663,33.5463323 190.7467,33.5463323 C182.906194,33.5463323 178.216953,39.5905258 178.216953,46.7192355 L178.216953,46.900429 C178.216953,54.0264935 183.355431,60.2532032 190.925073,60.2532032 C198.769543,60.2532032 203.457463,54.2090097 203.457463,47.0803 Z M164.700206,47.0803 L164.700206,46.900429 C164.700206,33.0040742 175.875635,21.726429 190.925073,21.726429 C205.887306,21.726429 216.97421,32.8255258 216.97421,46.7192355 L216.97421,46.900429 C216.97421,60.7941387 205.79878,72.0717839 190.7467,72.0717839 C175.784467,72.0717839 164.700206,60.9740097 164.700206,47.0803 Z M238.648307,57.2729 L238.648307,35.9700935 C238.648307,34.9821258 237.916315,34.3565452 237.029733,34.3565452 L233.697451,34.3565452 C233.697451,34.3565452 232.879576,34.3539 232.879576,33.5219968 L232.879576,23.4412871 C232.879576,23.0471581 232.952247,22.6292226 233.708022,22.6292226 L237.013877,22.6292226 C237.821182,22.6292226 238.648307,22.0843194 238.648307,21.0077387 L238.648307,11.0976419 C238.648307,10.5646419 238.809504,10.2683839 239.441078,10.2683839 L251.497805,10.2683839 C251.825484,10.2683839 252.351355,10.4561903 252.351355,11.1545129 L252.351355,21.0077387 C252.351355,21.9692548 252.771524,22.6292226 253.95011,22.6292226 L262.879355,22.6292226 C263.314058,22.6292226 263.707801,22.7614806 263.707801,23.4624484 L263.707801,33.5219968 C263.707801,33.9782871 263.662877,34.3565452 262.875391,34.3565452 L253.968608,34.3565452 C253.005391,34.3565452 252.351355,34.9384806 252.351355,35.9700935 L252.351355,55.0192226 C252.351355,58.1788677 253.988427,59.9273194 256.764447,59.7104161 C259.384556,59.5093839 260.520861,59.3877065 262.395765,58.4923194 C262.395765,58.4923194 263.528106,58.2674806 263.528106,59.4022548 L263.528106,68.1471581 C263.528106,68.7039645 263.253279,69.1853839 262.761761,69.4353516 C259.952708,70.8782871 257.031347,71.8014484 252.712066,71.8014484 C244.32719,71.8014484 238.648307,68.4592871 238.648307,57.2729 Z M103.69396,22.6293548 L115.738796,22.6293548 C116.074402,22.6293548 116.56592,22.9216452 116.56592,23.4572903 L116.56592,26.0429355 C116.56592,27.4977742 118.043117,27.7398065 118.546527,27.1605161 C121.622478,23.6146774 126.20998,21.7260323 130.718205,21.7260323 C141.082366,21.7260323 147.120639,28.5836129 147.120639,39.6827097 L147.120639,70.1589355 C147.120639,70.3864194 146.917161,70.9895161 146.292193,70.9895161 L134.251322,70.9895161 C133.918358,70.9895161 133.421555,70.7051613 133.421555,70.1615806 L133.421555,44.0128387 C133.421555,37.5163226 130.358816,34.1768065 125.13049,34.1768065 C119.902165,34.1768065 116.56592,37.5163226 116.56592,44.0128387 L116.56592,70.1589355 C116.56592,70.4909032 116.301663,70.9895161 115.740117,70.9895161 L103.69396,70.9895161 C103.363639,70.9895161 102.866836,70.6985484 102.866836,70.1589355 L102.866836,23.4572903 C102.866836,23.0962258 103.125808,22.6293548 103.69396,22.6293548 Z M314.775736,41.4252097 C313.609041,36.7102097 310.64672,32.7358548 304.877989,32.7358548 C297.575246,32.7358548 295.259033,39.4730806 294.800547,41.3022097 C294.631423,41.9754032 295.066125,43.0202419 296.115226,43.0202419 L313.376495,43.0202419 C314.922398,43.0202419 314.775736,41.4252097 314.775736,41.4252097 Z M280.989153,47.0805645 L280.989153,46.9006935 C280.989153,33.0942742 290.815551,21.7266935 304.877989,21.7266935 C321.008238,21.7266935 328.402149,34.2674032 328.402149,47.9825645 C328.402149,48.6584032 328.367796,49.4043387 328.318908,50.1767258 C328.28984,50.6409516 327.96084,51.5892419 326.802073,51.5892419 L296.401945,51.5892419 C295.088587,51.5892419 294.935318,52.9224032 295.154651,53.5347581 C296.927816,58.4904677 300.953772,61.0655323 306.409358,61.0655323 C310.638792,61.0655323 313.697567,59.8619839 317.22672,56.9046935 C317.915109,56.329371 318.698631,56.534371 319.095017,56.9615645 C319.095017,56.9615645 324.310129,61.5800161 325.011732,62.201629 C325.714655,62.8258871 325.570635,63.5612419 325.135933,64.0267903 C320.599961,68.9137258 314.680603,72.0720484 306.228342,72.0720484 C291.715346,72.0720484 280.989153,61.8762742 280.989153,47.0805645 Z"/>
    <path fill="#41C9B4" d="M10.2969382,70.9895161 L61.6817173,70.9895161 L61.6817173,10.2698387 L24.5826731,10.2698387 C24.3184161,10.2698387 23.891641,10.4814516 23.6696651,10.7208387 C19.3160305,15.4054194 14.9478619,20.1733226 10.6827534,24.8922903 C10.467384,25.1290323 10.3048659,25.625 10.3035446,26.0482258 L10.2969382,70.9895161 Z M66.8201952,0 C69.6530305,0 71.9586731,2.30790323 71.9586731,5.14351613 L71.9586731,76.1330323 C71.9586731,78.9686452 69.6530305,81.2752258 66.8201952,81.2752258 L5.15846026,81.2752258 C2.32298235,81.2752258 0.0173397816,78.9686452 0.0173397816,76.1330323 C0.0173397816,75.5762258 0.0133759262,26.1302258 0.00016307478,24.1780968 C-0.0117284915,22.1545484 0.626452231,20.5171935 2.00851649,19.0279677 L17.4939783,2.14125806 C18.8245125,0.679806452 20.3638097,0 22.3364884,0 L66.8201952,0 Z M20.5736297,35.7892968 C18.3076257,35.7892968 16.4631117,33.9442968 16.4631117,31.676071 C16.4631117,29.4078452 18.3063044,27.5615226 20.5723085,27.5615226 L27.5658707,27.5615226 L27.567192,20.5544903 C27.567192,18.2862645 29.4103848,16.4412645 31.6777101,16.4412645 C33.9450354,16.4412645 35.7882281,18.2862645 35.7882281,20.5544903 L35.7882281,31.676071 C35.7882281,33.9442968 33.9450354,35.7892968 31.6777101,35.7892968 L20.5736297,35.7892968 Z"/>
  </g>
</svg>
