<?xml version="1.0" encoding="utf-8"?>
<!-- Generator: Adobe Illustrator 23.0.3, SVG Export Plug-In . SVG Version: 6.00 Build 0)  -->
<svg version="1.1" id="レイヤー_1" xmlns="http://www.w3.org/2000/svg" xmlns:xlink="http://www.w3.org/1999/xlink" x="0px"
	 y="0px" viewBox="0 0 500 258" style="enable-background:new 0 0 500 258;" xml:space="preserve">
<style type="text/css">
	.st0{fill:#41C9B4;}
	.st1{fill:#FFFFFF;}
	.st2{filter:url(#Adobe_OpacityMaskFilter);}
	.st3{fill-rule:evenodd;clip-rule:evenodd;fill:#FFFFFF;}
	.st4{mask:url(#b_1_);fill:#FFFFFF;}
</style>
<rect class="st0" width="500" height="258"/>
<g transform="translate(83 63)">
	<g transform="translate(3 113)">
		<path class="st1" d="M5.7,7.1c4.2-1.4,7.6-2.3,9.7-2.3c4.8,0,8,2.9,8,7.2c0,3.6-1.5,5.8-4.8,7.6c-2.3,1.3-4.4,1.7-6.9,2.3
			C11.2,22,11,22,10.8,21.5c-0.3-0.8-1-1.6-1.9-2.2c3.6-0.6,5.5-1.1,7.3-2c2.3-1.2,3.7-2.9,3.7-5.4c0-2.6-1.7-4.1-4.7-4.1
			c-2.4,0-5.7,1-9.8,2.8c-0.9,0.4-1.5,0.7-1.9,1c-0.4,0.3-0.6,0.4-0.7,0.4c-0.3,0-0.5-0.2-0.8-0.6C1.7,10.7,1,9.7,0.4,8.5
			C1.6,8.4,2.6,8.1,5.7,7.1 M43.7,2.7C43.9,2.8,44,3,44,3.1c0,0.2-0.1,0.4-0.4,0.5c-0.3,0.2-0.7,0.4-1.3,1c-2.3,2.1-5.3,4.9-7.4,7.1
			c-0.2,0.3-0.4,0.5-0.4,0.6c0,0.2,0.1,0.3,0.4,0.5c3.5,2.6,7.2,5.5,10.1,8.6c0.1,0.1,0.2,0.2,0.2,0.4c0,0.1-0.1,0.2-0.2,0.3
			c-0.6,0.7-1.4,1.5-1.9,1.9c-0.2,0.1-0.3,0.2-0.4,0.2c-0.1,0-0.2-0.1-0.3-0.2c-3.1-3.5-6.2-6.4-9.9-9.2c-1-0.8-1.4-1.4-1.4-2.3
			c0-0.9,0.5-1.5,1.3-2.4c2.3-2.5,4.5-4.8,6.9-7.3c0.7-0.8,1.1-1.4,1.5-2C41.9,1.3,43,2,43.7,2.7 M60.4,19.1c-0.8,0-1.3,0.5-1.3,1
			c0,0.8,0.7,1.4,2.4,1.4c0.5,0,0.8,0,1.2-0.1C62.3,20,61.5,19.1,60.4,19.1L60.4,19.1z M60.4,11.3c1.5-0.9,2.8-1.2,4.3-1.2
			c4,0,6.7,2.6,6.7,6.5c0,4.6-3.7,7.5-9.4,7.5c-3.4,0-5.5-1.5-5.5-4c0-1.8,1.7-3.3,3.8-3.3c2.5,0,4.4,1.4,5.1,4
			c1.9-0.9,2.8-2.1,2.8-4.1c0-2.5-1.7-4.1-4.2-4.1c-2.2,0-4.7,1-6.9,2.9c-0.8,0.7-1.5,1.5-2.4,2.3c-0.2,0.2-0.3,0.3-0.5,0.3
			c-0.1,0-0.2-0.1-0.4-0.2c-0.6-0.5-1.2-1.2-1.6-1.8c-0.2-0.2-0.1-0.4,0.1-0.6c2.1-1.7,4-3.5,6.4-6c1.7-1.7,2.9-3.1,4.2-4.7
			c-1.6,0.3-3.5,0.7-5.2,1c-0.4,0.1-0.7,0.2-1.1,0.3c-0.1,0.1-0.4,0.1-0.5,0.1c-0.3,0-0.5-0.1-0.6-0.5c-0.3-0.6-0.6-1.4-0.9-2.9
			c0.8,0.1,1.7,0.1,2.5,0.1c1.7-0.2,4-0.5,6.1-0.9c0.7-0.1,1.2-0.3,1.5-0.4c0.1-0.1,0.4-0.2,0.5-0.2c0.3,0,0.4,0.1,0.6,0.2
			c0.8,0.6,1.4,1.2,1.8,1.7c0.2,0.2,0.3,0.4,0.3,0.7c0,0.3-0.2,0.5-0.5,0.7c-0.5,0.2-0.7,0.4-1.2,0.9C64.2,7.4,62.4,9.3,60.4,11.3
			L60.4,11.3z M79.6,18c0.2-0.2,0.3-0.2,0.4-0.2s0.2,0,0.4,0.2c2,1.3,3.8,2.9,5.4,5c0.2,0.2,0.2,0.3,0.2,0.4c0,0.1-0.1,0.2-0.3,0.4
			L84,25.2c-0.2,0.2-0.3,0.2-0.4,0.2c-0.1,0-0.2-0.1-0.4-0.3c-1.4-2.1-3.3-4-5.1-5.2c-0.2-0.1-0.2-0.2-0.2-0.3
			c0-0.1,0.1-0.2,0.2-0.3L79.6,18z M97.9,7.1c4.2-1.4,7.6-2.3,9.7-2.3c4.8,0,8,2.9,8,7.2c0,3.6-1.5,5.8-4.8,7.6
			c-2.3,1.3-4.4,1.7-6.9,2.3c-0.5,0.1-0.8,0.1-0.9-0.4c-0.3-0.8-1-1.6-1.9-2.2c3.6-0.6,5.5-1.1,7.3-2c2.3-1.2,3.7-2.9,3.7-5.4
			c0-2.6-1.7-4.1-4.7-4.1c-2.4,0-5.7,1-9.8,2.8c-0.9,0.4-1.5,0.7-1.9,1c-0.4,0.3-0.6,0.4-0.7,0.4c-0.3,0-0.5-0.2-0.8-0.6
			c-0.5-0.6-1.2-1.7-1.7-2.8C93.8,8.4,94.8,8.1,97.9,7.1 M137.2,5.8c0.2-0.3,0.3-0.3,0.6-0.2c1.6,0.4,3.7,1.5,5.3,2.6
			c0.2,0.1,0.2,0.2,0.2,0.3c0,0.1,0,0.2-0.1,0.3c-0.3,0.6-0.8,1.4-1.1,2c-0.1,0.1-0.2,0.2-0.2,0.2s-0.1,0-0.2-0.1
			c-1.6-1.1-3.5-2.3-5.6-3C136.4,7.1,136.8,6.2,137.2,5.8 M132.1,18.9c-1.4,0-2.4,0.5-2.4,1.6c0,0.9,0.8,1.3,2.3,1.3
			c1.5,0,2.4-0.8,2.4-1.9c0-0.2,0-0.4,0-0.5C133.7,19.1,133,18.9,132.1,18.9 M134.1,12c0-0.7-0.1-1.2-0.2-1.9c1.3,0.1,2,0.2,2.9,0.5
			c0.2,0.1,0.4,0.2,0.4,0.4c0,0.1-0.1,0.2-0.2,0.6c-0.1,0.3-0.1,0.7-0.1,1.1c0,1.6,0.1,2.8,0.3,4.6c1.9,0.8,3.3,1.4,4.9,2.5
			c0.3,0.2,0.3,0.3,0.2,0.6c-0.4,0.8-0.8,1.5-1.2,2.2c-0.1,0.1-0.2,0.2-0.2,0.2c-0.1,0-0.2-0.1-0.3-0.2c-1.2-1-2.2-1.6-3.3-2.3
			c0,2.7-1.9,4-5,4c-3,0-5-1.5-5-3.9c0-2.4,1.9-4,5-4c0.5,0,1.3,0,2.1,0.2C134.1,14.9,134.1,13.3,134.1,12 M133.3,4.7
			c0.2-0.1,0.4-0.1,0.4,0.2c0.1,0.7,0.2,1.5,0.2,2.2c0,0.2-0.1,0.3-0.3,0.3c-1.5,0.3-2.8,0.5-4.5,0.7c-1.7,4.6-3.3,8.4-5.3,11.7
			c-0.1,0.2-0.2,0.3-0.3,0.3c-0.1,0-0.2-0.1-0.3-0.1c-0.6-0.4-1.4-1-1.9-1.4c-0.1-0.1-0.2-0.2-0.2-0.3c0-0.1,0-0.2,0.1-0.3
			c2-3.4,3.5-6.2,4.7-9.5c-1,0.1-1.9,0.1-2.7,0.1c-0.6,0-0.8,0-1.5,0c-0.3,0-0.3-0.1-0.4-0.4c-0.1-0.5-0.2-1.4-0.3-2.3
			c1.1,0.1,1.7,0.1,2.5,0.1c1.1,0,1.9,0,3.1-0.1c0.3-1.1,0.5-2.1,0.7-3.1c0.2-1,0.2-1.4,0.2-2.2c1.2,0.2,2.3,0.3,3.2,0.6
			c0.3,0.1,0.4,0.2,0.4,0.4c0,0.2-0.1,0.4-0.2,0.5c-0.2,0.2-0.3,0.5-0.4,1c-0.2,0.7-0.4,1.5-0.6,2.3C131,5.2,132.3,4.9,133.3,4.7
			 M170.4,0.3c0.2-0.1,0.2-0.1,0.4,0.1c1,0.8,2,1.9,2.6,2.8c0.1,0.2,0.1,0.3-0.1,0.5l-1.1,0.8c-0.2,0.2-0.4,0.1-0.5-0.1
			c-0.7-1.2-1.6-2.2-2.7-3.1L170.4,0.3z M168,2.1c0.1-0.1,0.2-0.1,0.4,0.1c0.8,0.7,1.8,1.7,2.6,2.9c0.1,0.2,0.1,0.3-0.1,0.4
			l-1.1,0.8c-0.2,0.1-0.3,0.1-0.5-0.1c-0.8-1.3-1.7-2.3-2.7-3.2L168,2.1z M167.2,5.9c0.2-0.1,0.3-0.1,0.5,0.1c1.8,1.7,3.5,4,4.5,6.6
			c0.1,0.2,0.1,0.4-0.1,0.5c-0.5,0.4-1.5,1.1-2,1.4c-0.3,0.1-0.5,0.1-0.6-0.2c-1.1-2.9-2.5-5.2-4.4-7.1
			C165.7,6.8,166.5,6.3,167.2,5.9L167.2,5.9z M156.5,4.1c0.1-0.8,0.3-1.9,0.3-3c1.4,0.3,2.2,0.5,3.2,0.9c0.3,0.1,0.4,0.3,0.4,0.5
			c0,0.1-0.1,0.3-0.2,0.4c-0.3,0.4-0.4,0.7-0.5,1c-0.4,1.1-0.6,2.1-1,3.3c0.7-0.1,1.5-0.1,2.2-0.1c2.5,0,3.9,1.8,3.9,5.3
			c0,2.9-0.5,6.6-1.5,8.5c-0.8,1.7-2.1,2.6-3.7,2.6c-1.3,0-2.2-0.1-2.8-0.4c-0.3-0.1-0.5-0.4-0.5-0.8c-0.1-0.9-0.1-1.6-0.5-2.5
			c1.2,0.6,2.3,0.7,3.1,0.7c0.9,0,1.3-0.3,1.7-1.4c0.6-1.5,1.1-4.1,1.1-6.8c0-1.9-0.4-2.5-1.5-2.5c-0.6,0-1.5,0.1-2.3,0.2
			c-1.8,5.2-3.3,9-5.4,12.8c-0.2,0.4-0.4,0.4-0.7,0.2c-0.5-0.2-1.5-0.9-1.9-1.2c-0.1-0.1-0.2-0.2-0.2-0.4c0-0.1,0-0.2,0.1-0.3
			c2.2-3.8,3.6-6.7,5-10.7c-1.1,0.2-1.9,0.3-2.7,0.5c-0.7,0.1-1.1,0.3-1.5,0.4c-0.4,0.1-0.7,0.1-0.9-0.4c-0.2-0.6-0.5-1.6-0.8-2.8
			c1.2,0,2.4-0.1,3.6-0.2c1.1-0.1,2.1-0.2,3.2-0.4C156.1,6,156.3,5,156.5,4.1L156.5,4.1z M186.2,19.1c-0.8,0-1.3,0.5-1.3,1
			c0,0.8,0.7,1.4,2.4,1.4c0.5,0,0.8,0,1.2-0.1C188.1,20,187.3,19.1,186.2,19.1L186.2,19.1z M186.2,11.3c1.5-0.9,2.8-1.2,4.3-1.2
			c4,0,6.7,2.6,6.7,6.5c0,4.6-3.7,7.5-9.4,7.5c-3.4,0-5.5-1.5-5.5-4c0-1.8,1.7-3.3,3.8-3.3c2.5,0,4.4,1.4,5.1,4
			c1.9-0.9,2.8-2.1,2.8-4.1c0-2.5-1.7-4.1-4.2-4.1c-2.2,0-4.7,1-6.9,2.9c-0.8,0.7-1.5,1.5-2.4,2.3c-0.2,0.2-0.3,0.3-0.5,0.3
			c-0.1,0-0.2-0.1-0.4-0.2c-0.6-0.5-1.2-1.2-1.6-1.8c-0.2-0.2-0.1-0.4,0.1-0.6c2.1-1.7,4-3.5,6.4-6c1.7-1.7,2.9-3.1,4.2-4.7
			c-1.6,0.3-3.5,0.7-5.2,1c-0.4,0.1-0.7,0.2-1.1,0.3c-0.1,0.1-0.4,0.1-0.5,0.1c-0.3,0-0.5-0.1-0.6-0.5c-0.3-0.6-0.6-1.4-0.9-2.9
			c0.8,0.1,1.7,0.1,2.5,0.1c1.7-0.2,4-0.5,6.1-0.9c0.7-0.1,1.2-0.3,1.5-0.4c0.1-0.1,0.4-0.2,0.5-0.2c0.3,0,0.4,0.1,0.6,0.2
			c0.8,0.6,1.4,1.2,1.8,1.7c0.2,0.2,0.3,0.4,0.3,0.7c0,0.3-0.2,0.5-0.5,0.7c-0.5,0.2-0.7,0.4-1.2,0.9C190,7.4,188.2,9.3,186.2,11.3
			L186.2,11.3z M205.4,18c0.2-0.2,0.3-0.2,0.4-0.2s0.2,0,0.4,0.2c2,1.3,3.8,2.9,5.4,5c0.2,0.2,0.2,0.3,0.2,0.4
			c0,0.1-0.1,0.2-0.3,0.4l-1.7,1.4c-0.2,0.2-0.3,0.2-0.4,0.2c-0.1,0-0.2-0.1-0.4-0.3c-1.4-2.1-3.3-4-5.1-5.2
			c-0.2-0.1-0.2-0.2-0.2-0.3c0-0.1,0.1-0.2,0.2-0.3L205.4,18z M230.1,1.5c0.3,0.1,0.5,0.2,0.5,0.4c0,0.4-0.2,0.8-0.2,1.1
			c0,0.5,0.1,1.2,0.1,1.8c0.2,1.9,0.5,3.3,0.9,4.7c1.4-0.7,2.3-1.3,3.8-2.1c0.8-0.5,1.4-0.9,1.9-1.5c0.9,0.9,1.6,1.9,2,2.6
			c0.1,0.2,0.2,0.4,0.2,0.6c0,0.3-0.2,0.5-0.5,0.5c-0.8,0.1-1.7,0.5-2.6,0.8c-2.3,1-4.5,2-6.4,3.2c-2.4,1.6-3.2,2.8-3.2,4.1
			c0,1.6,1.2,2.3,4.3,2.3c3.4,0,6.2-0.2,8.3-0.6c0.3-0.1,0.4,0,0.5,0.3c0.1,0.7,0.2,1.7,0.3,2.5c0,0.3-0.2,0.4-0.5,0.5
			c-2.5,0.3-4.6,0.4-8.1,0.4c-5.1,0-7.8-1.7-7.8-5.2c0-3,2-5,5.1-7c-0.7-2.1-1.1-4.6-1.4-6.7c-0.2-1.4-0.4-2.4-0.7-3.2
			C227.9,1.1,229.1,1.2,230.1,1.5 M265.6,0.3c0.2-0.1,0.2-0.1,0.4,0.1c1,0.8,2,1.9,2.6,2.8c0.1,0.2,0.1,0.3-0.1,0.5l-1.1,0.8
			c-0.2,0.2-0.4,0.1-0.5-0.1c-0.7-1.2-1.6-2.2-2.7-3.1L265.6,0.3z M263.2,2c0.1-0.1,0.2-0.1,0.4,0.1c0.8,0.7,1.8,1.7,2.6,2.9
			c0.1,0.2,0.1,0.3-0.1,0.4L265,6.3c-0.2,0.1-0.3,0.1-0.5-0.1c-0.8-1.3-1.7-2.3-2.7-3.2L263.2,2z M254.4,1.7
			c0.3,0.1,0.5,0.2,0.5,0.4c0,0.4-0.2,0.8-0.2,1.1c0,0.5,0.1,1.2,0.1,1.8c0.2,1.9,0.5,3.3,0.9,4.7c1.4-0.7,2.3-1.3,3.8-2.1
			c0.8-0.5,1.4-0.9,1.9-1.5c0.9,0.9,1.6,1.9,2,2.6c0.1,0.2,0.2,0.4,0.2,0.6c0,0.3-0.2,0.5-0.5,0.5c-0.8,0.1-1.7,0.5-2.6,0.8
			c-2.3,1-4.5,2-6.4,3.2c-2.4,1.6-3.2,2.8-3.2,4.1c0,1.6,1.1,2.3,4.5,2.3c3,0,6-0.2,8.1-0.6c0.3-0.1,0.4,0,0.5,0.3
			c0.1,0.7,0.2,1.7,0.3,2.5c0,0.3-0.2,0.4-0.5,0.5c-2.5,0.3-4.6,0.4-8.1,0.4c-5.1,0-7.8-1.7-7.8-5.2c0-3,2-5,5.1-7
			c-0.6-2.1-1.1-4.6-1.4-6.7c-0.2-1.4-0.4-2.4-0.7-3.2C252.1,1.4,253.4,1.5,254.4,1.7L254.4,1.7z M287.1,9.7
			c-1.4,0.1-2.5,0.2-3.2,0.2c-0.6,0-1.3,0-2.3,0c-0.4,0-0.6-0.1-0.6-0.4c-0.1-0.5-0.2-1.3-0.3-2.5C281.6,7,283,7,284,7
			c0.8,0,2,0,3-0.1c-0.1-1.4-0.1-2.6-0.2-3.6c-0.1-1-0.2-1.5-0.5-2.2c1.6,0.1,2.9,0.2,3.5,0.4c0.3,0.1,0.4,0.2,0.4,0.4
			c0,0.2-0.1,0.4-0.2,0.5C290,2.6,290,3,290,3.6v3c1.2-0.2,2.3-0.4,3.5-0.6c0.3-0.1,0.5,0,0.5,0.2c0.1,0.7,0.2,1.3,0.2,2
			c0,0.4-0.1,0.5-0.4,0.5c-1.3,0.2-2.5,0.4-3.7,0.5l0,4.2c0,2.5-0.4,4.7-1.2,6.3c-0.8,1.8-2.2,3.2-3.9,4.2c-0.3,0.2-0.5,0.2-0.7,0.2
			c-0.2,0-0.3,0-0.5-0.2c-0.5-0.4-1.2-0.9-2.1-1.3c2.5-1.4,3.8-2.6,4.6-4.5c0.6-1.4,0.9-3.2,0.8-6.1L287.1,9.7z M277.7,22
			c0,0.2-0.1,0.3-0.4,0.4c-0.8,0.4-1.3,0.5-1.9,0.6c-0.3,0.1-0.5,0-0.6-0.4c-0.9-1.7-1.6-5.6-1.6-8.5c0-2.2,0.2-4.7,0.8-8.7
			c0.2-1.3,0.3-2.5,0.3-4.1c1.2,0.3,2.1,0.6,2.8,1c0.4,0.2,0.6,0.4,0.6,0.6c0,0.1,0,0.2-0.2,0.5c-0.1,0.4-0.3,1.1-0.5,2
			c-0.5,2.9-1,5.8-1,8.2c0,1.7,0.1,3.3,0.3,4.3c0.7-1.4,1.2-2.4,1.8-3.9c0.4,1,0.6,1.4,0.9,1.8c0.2,0.2,0.2,0.4,0.2,0.5
			c0,0.2-0.1,0.4-0.3,0.9c-0.7,1.6-0.9,2.4-1.2,3.3c-0.1,0.2-0.1,0.5-0.1,0.7V22z M307.1,19.1c-0.8,0-1.3,0.5-1.3,1
			c0,0.8,0.7,1.4,2.4,1.4c0.5,0,0.8,0,1.2-0.1C309,20,308.2,19.1,307.1,19.1L307.1,19.1z M307,11.3c1.5-0.9,2.8-1.2,4.3-1.2
			c4,0,6.7,2.6,6.7,6.5c0,4.6-3.7,7.5-9.4,7.5c-3.4,0-5.5-1.5-5.5-4c0-1.8,1.7-3.3,3.8-3.3c2.5,0,4.4,1.4,5.1,4
			c1.9-0.9,2.8-2.1,2.8-4.1c0-2.5-1.7-4.1-4.2-4.1c-2.2,0-4.7,1-6.9,2.9c-0.8,0.7-1.5,1.5-2.4,2.3c-0.2,0.2-0.3,0.3-0.5,0.3
			c-0.1,0-0.2-0.1-0.4-0.2c-0.6-0.5-1.2-1.2-1.6-1.8c-0.2-0.2-0.1-0.4,0.1-0.6c2.1-1.7,4-3.5,6.4-6c1.7-1.7,2.9-3.1,4.2-4.7
			c-1.6,0.3-3.5,0.7-5.2,1c-0.4,0.1-0.7,0.2-1.1,0.3c-0.1,0.1-0.4,0.1-0.5,0.1c-0.3,0-0.5-0.1-0.6-0.5c-0.3-0.6-0.6-1.4-0.9-2.9
			c0.8,0.1,1.7,0.1,2.5,0.1c1.7-0.2,4-0.5,6.1-0.9c0.7-0.1,1.2-0.3,1.5-0.4c0.1-0.1,0.4-0.2,0.5-0.2c0.3,0,0.4,0.1,0.6,0.2
			c0.8,0.6,1.4,1.2,1.8,1.7c0.2,0.2,0.3,0.4,0.3,0.7c0,0.3-0.2,0.5-0.5,0.7c-0.5,0.2-0.7,0.4-1.2,0.9C310.9,7.4,309.1,9.3,307,11.3
			L307,11.3z"/>
		<g transform="translate(323.741 17.152)">
			<defs>
				<filter id="Adobe_OpacityMaskFilter" filterUnits="userSpaceOnUse" x="0.1" y="0.5" width="7.8" height="7.9">
					<feColorMatrix  type="matrix" values="1 0 0 0 0  0 1 0 0 0  0 0 1 0 0  0 0 0 1 0"/>
				</filter>
			</defs>
			<mask maskUnits="userSpaceOnUse" x="0.1" y="0.5" width="7.8" height="7.9" id="b_1_">
				<g class="st2">
					<polygon id="a_1_" class="st3" points="0.1,0.5 7.9,0.5 7.9,8.3 0.1,8.3 					"/>
				</g>
			</mask>
			<path class="st4" d="M1.8,4.4c0,1.3,1,2.3,2.2,2.3c1.3,0,2.2-1,2.2-2.3S5.3,2.1,4,2.1C2.7,2.1,1.8,3.1,1.8,4.4 M7.9,4.4
				c0,2.2-1.8,3.9-3.9,3.9c-2.2,0-3.9-1.7-3.9-3.9c0-2.2,1.8-3.9,3.9-3.9C6.2,0.5,7.9,2.2,7.9,4.4"/>
		</g>
	</g>
	<path class="st1" d="M203.5,47.1v-0.2c0-7.1-5.1-13.4-12.7-13.4c-7.8,0-12.5,6-12.5,13.2v0.2c0,7.1,5.1,13.4,12.7,13.4
		C198.8,60.3,203.5,54.2,203.5,47.1z M164.7,47.1v-0.2c0-13.9,11.2-25.2,26.2-25.2c15,0,26,11.1,26,25v0.2
		c0,13.9-11.2,25.2-26.2,25.2C175.8,72.1,164.7,61,164.7,47.1z M238.6,57.3V36c0-1-0.7-1.6-1.6-1.6h-3.3c0,0-0.8,0-0.8-0.8V23.4
		c0-0.4,0.1-0.8,0.8-0.8h3.3c0.8,0,1.6-0.5,1.6-1.6v-9.9c0-0.5,0.2-0.8,0.8-0.8h12.1c0.3,0,0.9,0.2,0.9,0.9V21c0,1,0.4,1.6,1.6,1.6
		h8.9c0.4,0,0.8,0.1,0.8,0.8v10.1c0,0.5,0,0.8-0.8,0.8H254c-1,0-1.6,0.6-1.6,1.6v19c0,3.2,1.6,4.9,4.4,4.7c2.6-0.2,3.8-0.3,5.6-1.2
		c0,0,1.1-0.2,1.1,0.9v8.7c0,0.6-0.3,1-0.8,1.3c-2.8,1.4-5.7,2.4-10,2.4C244.3,71.8,238.6,68.5,238.6,57.3z M103.7,22.6h12
		c0.3,0,0.8,0.3,0.8,0.8V26c0,1.5,1.5,1.7,2,1.1c3.1-3.5,7.7-5.4,12.2-5.4c10.4,0,16.4,6.9,16.4,18v30.5c0,0.2-0.2,0.8-0.8,0.8h-12
		c-0.3,0-0.8-0.3-0.8-0.8V44c0-6.5-3.1-9.8-8.3-9.8c-5.2,0-8.6,3.3-8.6,9.8v26.1c0,0.3-0.3,0.8-0.8,0.8h-12c-0.3,0-0.8-0.3-0.8-0.8
		V23.5C102.9,23.1,103.1,22.6,103.7,22.6z M314.8,41.4c-1.2-4.7-4.1-8.7-9.9-8.7c-7.3,0-9.6,6.7-10.1,8.6c-0.2,0.7,0.3,1.7,1.3,1.7
		h17.3C314.9,43,314.8,41.4,314.8,41.4z M281,47.1v-0.2c0-13.8,9.8-25.2,23.9-25.2c16.1,0,23.5,12.5,23.5,26.3c0,0.7,0,1.4-0.1,2.2
		c0,0.5-0.4,1.4-1.5,1.4h-30.4c-1.3,0-1.5,1.3-1.2,1.9c1.8,5,5.8,7.5,11.3,7.5c4.2,0,7.3-1.2,10.8-4.2c0.7-0.6,1.5-0.4,1.9,0.1
		c0,0,5.2,4.6,5.9,5.2c0.7,0.6,0.6,1.4,0.1,1.8c-4.5,4.9-10.5,8-18.9,8C291.7,72.1,281,61.9,281,47.1z"/>
	<path class="st1" d="M10.3,71h51.4V10.3H24.6c-0.3,0-0.7,0.2-0.9,0.5c-4.4,4.7-8.7,9.5-13,14.2c-0.2,0.2-0.4,0.7-0.4,1.2L10.3,71z
		 M66.8,0C69.7,0,72,2.3,72,5.1v71c0,2.8-2.3,5.1-5.1,5.1H5.2C2.3,81.3,0,79,0,76.1c0-0.6,0-50,0-52c0-2,0.6-3.7,2-5.2L17.5,2.1
		C18.8,0.7,20.4,0,22.3,0H66.8z M20.6,35.8c-2.3,0-4.1-1.8-4.1-4.1s1.8-4.1,4.1-4.1h7l0-7c0-2.3,1.8-4.1,4.1-4.1s4.1,1.8,4.1,4.1
		v11.1c0,2.3-1.8,4.1-4.1,4.1H20.6z"/>
</g>
</svg>
